<svg xmlns="http://www.w3.org/2000/svg" viewBox="0 0 64 64" width="64" height="64" role="img" aria-label="ViaFluvialAM">
  <defs>
    <linearGradient id="vfaLogoBg" x1="0" y1="0" x2="1" y2="1">
      <stop offset="0%" stop-color="#1A5F3B"/>
      <stop offset="100%" stop-color="#0E3B2A"/>
    </linearGradient>
    <linearGradient id="vfaWater" x1="0" y1="0" x2="0" y2="1">
      <stop offset="0%" stop-color="#D8F3E6"/>
      <stop offset="100%" stop-color="#A8D5BA"/>
    </linearGradient>
  </defs>
  <rect width="64" height="64" rx="16" fill="url(#vfaLogoBg)"/>
  <!-- sol -->
  <circle cx="44" cy="20" r="7" fill="#F9C74F"/>
  <!-- casco do barco -->
  <path d="M14 36h36l-5 9a4 4 0 0 1-3.6 2.3H22.6A4 4 0 0 1 19 45z" fill="#F9C74F"/>
  <path d="M30 24h4v12h-4z" fill="#D8F3E6"/>
  <path d="M34 26l9 5-9 4z" fill="#D8F3E6"/>
  <!-- ondas -->
  <path d="M10 52c4-2.6 7-3 10 0s7 2.6 11 0 7-3 11 0 7 2.6 11 0" fill="none" stroke="url(#vfaWater)" stroke-width="3.2" stroke-linecap="round"/>
</svg>
